<?xml version="1.0" encoding="UTF-8"?><svg id="a" xmlns="http://www.w3.org/2000/svg" viewBox="0 0 291.31 64.22"><rect x="-10.65" y="-6.59" width="312.38" height="57.68" fill="none"/><path d="M45.29,23.69c0,3.02-.38,5.82-1.15,8.39-.77,2.57-1.87,4.88-3.31,6.95-1.97,2.83-4.51,5.05-7.63,6.66-3.12,1.61-6.67,2.41-10.66,2.41s-7.82-.94-11.23-2.81c-3.41-1.87-6.14-4.54-8.21-7.99C1.03,33.84,0,29.76,0,25.06s.88-8.88,2.63-12.67c1.75-3.79,4.27-6.8,7.56-9.04C13.48,1.12,17.45,0,22.1,0,26.42,0,30.34.94,33.84,2.81c3.5,1.87,6.29,4.57,8.35,8.1,2.06,3.53,3.1,7.79,3.1,12.78ZM21.17,2.59c-2.35,0-4.62.72-6.8,2.16-2.18,1.44-3.97,3.72-5.36,6.84-1.39,3.12-2.09,7.2-2.09,12.24,0,4.61.82,8.52,2.45,11.74,1.63,3.22,3.74,5.68,6.34,7.38,2.59,1.7,5.35,2.56,8.28,2.56,2.74,0,5.2-.8,7.38-2.41,2.18-1.61,3.9-3.95,5.15-7.02,1.25-3.07,1.87-6.74,1.87-11.02,0-4.85-.78-8.94-2.34-12.28-1.56-3.34-3.64-5.87-6.23-7.6-2.59-1.73-5.47-2.59-8.64-2.59Z" fill="#f5f7fb"/><path d="M59.11,20.88c.05.72.31.82.79.29,1.44-1.58,3.02-2.88,4.75-3.89,1.73-1.01,3.43-1.51,5.11-1.51,2.45,0,4.63.7,6.55,2.09,1.92,1.39,3.43,3.2,4.54,5.44,1.1,2.23,1.66,4.62,1.66,7.16,0,2.93-.47,5.51-1.4,7.74s-2.24,4.19-3.92,5.87c-1.49,1.39-3.12,2.41-4.9,3.06-1.78.65-3.67.97-5.69.97-2.35,0-4.44-.38-6.26-1.15-.38-.14-.65-.2-.79-.18-.14.02-.22.28-.22.76v7.78c0,1.97.13,3.4.4,4.28.26.89.83,1.46,1.69,1.73.86.26,2.14.44,3.82.54.24.19.36.58.36,1.15s-.12.98-.36,1.22c-1.2-.05-2.59-.08-4.18-.11-1.58-.02-3.1-.04-4.54-.04s-2.83.01-4.18.04c-1.34.02-2.64.06-3.89.11-.19-.24-.29-.65-.29-1.22s.1-.96.29-1.15c1.49-.1,2.59-.26,3.31-.5.72-.24,1.21-.82,1.48-1.73.26-.91.4-2.35.4-4.32v-30.74c0-1.39-.12-2.41-.36-3.06-.24-.65-.7-1.09-1.37-1.33-.67-.24-1.66-.41-2.95-.5-.05-.24-.1-.59-.14-1.04-.05-.46-.05-.78,0-.97,2.5-.34,4.34-.67,5.54-1.01,1.2-.33,2.3-.7,3.31-1.08.29,0,.48.06.58.18.1.12.19.25.29.4.19.38.32,1,.4,1.84.07.84.13,1.81.18,2.92ZM60.48,23.54c-.43.53-.73,1-.9,1.4-.17.41-.25,1-.25,1.76v13.1c0,1.3.11,2.17.32,2.63.22.46.68,1.02,1.4,1.69.67.58,1.54.97,2.59,1.19,1.06.22,1.9.32,2.52.32,2.02,0,3.68-.41,5-1.22,1.32-.82,2.35-1.88,3.1-3.2.74-1.32,1.27-2.75,1.58-4.28.31-1.54.47-3.05.47-4.54,0-2.74-.4-5.1-1.19-7.09-.79-1.99-1.84-3.53-3.13-4.61-1.3-1.08-2.71-1.62-4.25-1.62-1.06,0-2.29.46-3.71,1.37-1.42.91-2.6,1.94-3.56,3.1Z" fill="#f5f7fb"/><path d="M113.54,40.68c.82.05,1.32.43,1.51,1.15-1.44,1.87-3.16,3.38-5.15,4.54-1.99,1.15-4.36,1.73-7.09,1.73-2.59,0-4.76-.41-6.52-1.22-1.75-.82-3.25-1.94-4.5-3.38-1.2-1.39-2.06-3.01-2.59-4.86-.53-1.85-.79-3.78-.79-5.8,0-2.74.44-5.16,1.33-7.27.89-2.11,2.05-3.88,3.49-5.29,1.44-1.42,3-2.5,4.68-3.24,1.68-.74,3.31-1.12,4.9-1.12,3.36,0,5.9.62,7.63,1.87,1.73,1.25,2.92,2.83,3.56,4.75.65,1.92.97,3.89.97,5.9,0,.82-.46,1.22-1.37,1.22l-19.15-.14c0,2.06.2,3.92.61,5.58.41,1.66.97,3.08,1.69,4.28,1.1,1.82,2.36,3.14,3.78,3.96,1.42.82,2.77,1.22,4.07,1.22,2.11,0,3.79-.31,5.04-.94,1.25-.62,2.54-1.61,3.89-2.95ZM94.68,27.07l13.03-.22c.72,0,1.08-.34,1.08-1.01,0-2.02-.31-3.58-.94-4.68-.62-1.1-1.39-1.86-2.3-2.27-.91-.41-1.82-.61-2.74-.61-.43,0-1.03.08-1.8.25-.77.17-1.57.53-2.41,1.08-.84.55-1.62,1.43-2.34,2.63-.72,1.2-1.25,2.81-1.58,4.82Z" fill="#f5f7fb"/><path d="M131.18,21.6c2.11-2.45,4.16-4.03,6.16-4.75,1.99-.72,3.88-1.08,5.65-1.08,1.25,0,2.4.2,3.46.61,1.06.41,1.9,1.02,2.52,1.84.82,1.1,1.34,2.5,1.58,4.18.24,1.68.36,3.5.36,5.47v10.73c0,1.97.12,3.4.36,4.28.24.89.71,1.45,1.4,1.69.69.24,1.72.43,3.06.58.19.19.29.58.29,1.15s-.1.98-.29,1.22c-1.06-.05-2.23-.08-3.53-.11-1.3-.02-2.66-.04-4.1-.04s-2.75.01-3.92.04c-1.18.02-2.32.06-3.42.11-.19-.24-.29-.65-.29-1.22s.1-.96.29-1.15c1.25-.14,2.2-.34,2.84-.58.65-.24,1.08-.8,1.3-1.69.22-.89.32-2.32.32-4.28v-10.94c0-1.1-.05-2.12-.14-3.06-.1-.94-.34-1.76-.72-2.48-.43-.82-1-1.45-1.69-1.91-.7-.46-1.4-.68-2.12-.68-1.39,0-2.86.37-4.39,1.12-1.54.74-3,1.79-4.39,3.13-.29.34-.56.73-.83,1.19-.26.46-.4,1.07-.4,1.84v11.81c0,1.97.11,3.4.32,4.28.22.89.65,1.45,1.3,1.69.65.24,1.57.43,2.77.58.24.19.36.58.36,1.15s-.12.98-.36,1.22c-1.06-.05-2.16-.08-3.31-.11-1.15-.02-2.45-.04-3.89-.04s-2.84.01-4.21.04c-1.37.02-2.6.06-3.71.11-.19-.24-.29-.65-.29-1.22s.1-.96.29-1.15c1.44-.14,2.52-.34,3.24-.58.72-.24,1.2-.8,1.44-1.69.24-.89.36-2.32.36-4.28v-14.04c0-1.39-.12-2.41-.36-3.06-.24-.65-.7-1.09-1.37-1.33-.67-.24-1.66-.41-2.95-.5-.05-.24-.1-.59-.14-1.04-.05-.46-.05-.78,0-.97,2.5-.34,4.34-.67,5.54-1.01,1.2-.33,2.3-.7,3.31-1.08.29,0,.48.06.58.18.1.12.19.25.29.4.19.38.32,1.15.4,2.3.07,1.15.13,2.21.18,3.17,0,.34.08.48.25.43.17-.05.37-.19.61-.43Z" fill="#f5f7fb"/><path d="M168.12,41.69c-.38,1.01-.34,1.74.14,2.2.48.46,1.18.77,2.09.94.91.17,1.82.28,2.74.32.24.19.36.58.36,1.15s-.12.98-.36,1.22c-1.34-.05-2.84-.08-4.5-.11-1.66-.02-3.23-.04-4.72-.04-1.1,0-2.21.01-3.31.04-1.1.02-2.14.06-3.1.11-.19-.24-.29-.65-.29-1.22s.1-.96.29-1.15c1.58-.1,2.95-.42,4.1-.97,1.15-.55,2.18-1.93,3.1-4.14L181.01,1.44c.48,0,1.13-.16,1.94-.47.82-.31,1.49-.64,2.02-.97l14.83,41.18c.62,1.73,1.51,2.78,2.66,3.17,1.15.38,2.42.65,3.82.79.24.19.36.58.36,1.15s-.12.98-.36,1.22c-1.25-.05-2.56-.08-3.92-.11-1.37-.02-2.8-.04-4.28-.04-1.39,0-2.98.01-4.75.04-1.78.02-3.34.06-4.68.11-.19-.24-.29-.65-.29-1.22s.1-.96.29-1.15c1.73-.14,3.16-.36,4.28-.65,1.13-.29,1.48-1.06,1.04-2.3l-4.18-12.17h-15.19c-.86,0-1.45.08-1.76.25-.31.17-.56.49-.76.97l-3.96,10.44ZM175.89,27h12.74l-6.77-19.58h-.43l-7.34,18.65c-.14.34-.07.58.22.72.29.14.82.22,1.58.22Z" fill="#f5f7fb"/><path d="M250.56,26.86c.43.43.65,1.03.65,1.8s-.22,1.37-.65,1.8h-34.2v17.28c-.43.43-1.03.65-1.8.65s-1.37-.22-1.8-.65V9.58c.43-.43,1.03-.65,1.8-.65s1.37.22,1.8.65v17.28h34.2Z" fill="#758dc3"/><path d="M262.29,9.72c0-2.02-.17-3.47-.5-4.36-.34-.89-.96-1.46-1.87-1.73-.91-.26-2.21-.42-3.89-.47-.19-.24-.29-.65-.29-1.22s.1-.96.29-1.15c1.44.05,3.01.08,4.72.11,1.7.02,3.23.04,4.57.04,1.44,0,3.1-.08,4.97-.25,1.87-.17,3.5-.25,4.9-.25,3.31,0,6.02.41,8.14,1.22,2.11.82,3.74,1.86,4.9,3.13,1.15,1.27,1.96,2.59,2.41,3.96s.68,2.58.68,3.64c0,1.54-.28,3.16-.83,4.86-.55,1.7-1.48,3.3-2.77,4.79-1.3,1.49-3.05,2.7-5.26,3.64-2.21.94-4.94,1.4-8.21,1.4-2.4,0-4.34-.24-5.83-.72v12.24c0,1.97.23,3.4.68,4.28.46.89,1.21,1.46,2.27,1.73,1.06.26,2.52.44,4.39.54.24.19.36.58.36,1.15s-.12.98-.36,1.22c-1.78-.05-3.62-.08-5.54-.11-1.92-.02-3.53-.04-4.82-.04s-2.77.01-4.43.04c-1.66.02-3.3.06-4.93.11-.19-.24-.29-.65-.29-1.22s.1-.96.29-1.15c1.68-.1,2.98-.26,3.89-.5.91-.24,1.54-.82,1.87-1.73.34-.91.5-2.35.5-4.32V9.72ZM268.41,7.49v16.78c.38.1,1.16.18,2.34.25,1.18.07,2.22.11,3.13.11,3.5,0,6.17-.85,7.99-2.56,1.82-1.7,2.74-4.5,2.74-8.39,0-3.07-.48-5.38-1.44-6.91-.96-1.54-2.2-2.57-3.71-3.1-1.51-.53-3.11-.79-4.79-.79s-3.05.24-3.96.72c-.91.48-1.52,1.07-1.84,1.76-.31.7-.47,1.4-.47,2.12Z" fill="#f5f7fb"/></svg>